PathFileType	4	(x/y/z)	TRC_MarkerData\Passive\Passive_Pref0007.trc
DataRate	CameraRate	NumFrames	NumMarkers	Units	OrigDataRate	OrigDataStartFrame	OrigNumFrames
240	240	6	50	mm	240	225	256
Frame#	Time	R_AC			L_AC			HEAD			STERN			L_IC			R_IC			L_ASIS			R_ASIS			L_GT			R_GT			L_PSIS			R_PSIS			SACRAL			L_LAT_KNEE			L_MED_KNEE			R_LAT_KNEE			R_MED_KNEE			L_LAT_ANK			L_MED_ANK			R_LAT_ANK			R_MED_ANK			L_THIGH_PROX_POST			L_THIGH_PROX_ANT			L_THIGH_DIST_ANT			L_THIGH_DIST_POST			R_THIGH_PROX_POST			R_THIGH_PROX_ANT			R_THIGH_DIST_ANT			R_THIGH_DIST_POST			L_SHANK_PROX_POST			L_SHANK_PROX_ANT			L_SHANK_DIST_ANT			L_SHANK_DIST_POST			R_SHANK_PROX_POST			R_SHANK_PROX_ANT			R_SHANK_DIST_ANT			R_SHANK_DIST_POST			L_HEEL_LAT			L_HEEL_SUP			L_HEEL_MED			R_HEEL_LAT			R_HEEL_SUP			R_HEEL_MED			L_1ST_MET			L_5TH_MET			L_TOE			R_1ST_MET			R_5TH_MET			R_TOE			C7			
		X1	Y1	Z1	X2	Y2	Z2	X3	Y3	Z3	X4	Y4	Z4	X5	Y5	Z5	X6	Y6	Z6	X7	Y7	Z7	X8	Y8	Z8	X9	Y9	Z9	X10	Y10	Z10	X11	Y11	Z11	X12	Y12	Z12	X13	Y13	Z13	X14	Y14	Z14	X15	Y15	Z15	X16	Y16	Z16	X17	Y17	Z17	X18	Y18	Z18	X19	Y19	Z19	X20	Y20	Z20	X21	Y21	Z21	X22	Y22	Z22	X23	Y23	Z23	X24	Y24	Z24	X25	Y25	Z25	X26	Y26	Z26	X27	Y27	Z27	X28	Y28	Z28	X29	Y29	Z29	X30	Y30	Z30	X31	Y31	Z31	X32	Y32	Z32	X33	Y33	Z33	X34	Y34	Z34	X35	Y35	Z35	X36	Y36	Z36	X37	Y37	Z37	X38	Y38	Z38	X39	Y39	Z39	X40	Y40	Z40	X41	Y41	Z41	X42	Y42	Z42	X43	Y43	Z43	X44	Y44	Z44	X45	Y45	Z45	X46	Y46	Z46	X47	Y47	Z47	X48	Y48	Z48	X49	Y49	Z49	X50	Y50	Z50	

225	0.93699	537.39	1523.4	413.32	542.97	1529.1	59.195	555.45	1809.7	233.42	579.2	1469.6	237.36	474.6	1103.8	79.285	503.69	1120.1	401.75	532.6	1023.2	99.797	565.49	1023.1	369.89	460.61	940.99	49.947	482.93	956.49	433.02	362.66	1093.3	203.58	372.5	1100.6	294.74	350.49	1065.9	251.67	633.01	572.77	96.564	635.3	554.19	232.85	394.21	548.89	369.41	373.74	569.06	239.27	632.47	153.14	85.889	650.9	147.12	153.49	250.62	140.87	331.45	259.08	160.18	241.3	528.23	776.09	80.272	586.09	801.76	97.536	611.92	735.44	113.42	561.14	708.93	93.14	400.85	757.43	403.58	468.53	752.24	401.9	455.01	678.75	387.25	388.24	685.02	387.7	622.07	486.56	95.477	669.31	498.25	111.26	663.09	439.4	113.27	606.08	425.48	116.77	289.35	403.59	374.25	355.66	388.63	366.66	333.15	316.72	352.94	265.86	335.33	358.93	561	75.1	104.38	563.99	98.512	140.92	579.99	68.041	168.32	164.87	91.235	310.53	167.09	118.48	276.15	174.43	89.079	243.64	782.5	96.499	128.51	725.22	86.916	33.514	829.7	111.34	80.77	376.5	53.313	247.15	346.01	51.166	353.26	429.7	47.893	296.74	464.99	1587	237.28
226	0.94118	543.25	1522.9	413.11	548.46	1528.6	58.962	561.45	1809.1	232.91	584.95	1469.1	237.12	481.06	1103.5	78.823	509.36	1119.4	401.29	539.18	1023	99.442	571.16	1022.4	369.56	467.35	940.45	49.263	488.02	955.87	432.52	368.92	1092.6	202.71	378.44	1099.9	293.93	356.56	1065.2	250.7	638.59	571.57	96.01	639.56	552.8	232.3	396.33	549.1	369.26	376.2	569.23	239.02	649.85	152.03	84.959	667.67	146.38	152.81	251.24	141.54	331.07	259.88	160.72	240.93	533.76	775.24	79.747	591.71	800.6	97.241	616.7	733.99	113.23	565.92	707.84	92.737	404.43	757.75	403.03	472.07	752.04	401.52	458.08	678.64	386.94	391.34	685.42	387.22	630.07	485.04	94.735	676.76	498.04	111.1	672.18	438.99	112.99	615.52	423.49	115.78	290.89	404.15	374.03	357.15	388.94	366.49	334.4	317.12	352.73	267.13	335.96	358.63	580.4	71.888	102.48	582.25	95.23	139.01	598.76	65.255	166.6	165.33	92.325	310.28	167.65	119.51	275.79	174.89	89.944	243.42	800.97	99.466	129.44	745.14	88.476	33.74	848.29	115.7	82.365	376.6	53.219	247.08	346.15	51.336	353.12	429.81	47.744	296.69	470.77	1586.4	237.07
227	0.94536	549.12	1522.3	412.89	553.96	1528	58.72	567.46	1808.4	232.39	590.71	1468.6	236.87	487.56	1103.1	78.361	515.02	1118.7	400.84	545.8	1022.6	99.104	576.85	1021.7	369.26	474.14	939.81	48.567	493.12	955.2	432.03	375.22	1091.8	201.82	384.4	1099.1	293.1	362.7	1064.4	249.74	644.21	570.27	95.411	643.78	551.28	231.67	398.49	549.28	369.12	378.75	569.36	238.76	667.02	151.11	84.119	684.17	145.81	152.23	251.87	142.21	330.69	260.7	161.25	240.56	539.29	774.29	79.159	597.31	799.31	96.868	621.6	732.43	112.89	570.62	706.62	92.271	408.04	758.03	402.47	475.64	751.81	401.16	461.18	678.49	386.66	394.47	685.78	386.75	638.05	483.48	93.968	684.16	497.74	110.94	681.17	438.54	112.72	624.91	421.5	114.77	292.46	404.69	373.81	358.68	389.22	366.32	335.67	317.5	352.52	268.43	336.57	358.32	599.6	68.966	100.66	600.25	92.22	137.17	617.26	62.735	164.97	165.78	93.409	310.03	168.22	120.53	275.42	175.35	90.81	243.19	819.02	102.55	130.57	764.75	90.223	34.147	866.46	120.15	84.191	376.71	53.127	247.02	346.27	51.498	352.98	429.91	47.599	296.64	476.56	1585.7	236.85
228	0.94954	555.01	1521.7	412.65	559.49	1527.3	58.468	573.48	1807.7	231.88	596.48	1467.9	236.61	494.08	1102.7	77.9	520.68	1117.9	400.4	552.46	1022.1	98.782	582.55	1020.9	368.98	480.99	939.09	47.859	498.23	954.47	431.55	381.57	1090.9	200.89	390.38	1098.3	292.25	368.9	1063.5	248.77	649.86	568.86	94.77	647.97	549.65	230.99	400.71	549.44	368.97	381.4	569.45	238.51	683.95	150.36	83.37	700.38	145.4	151.76	252.51	142.88	330.31	261.55	161.78	240.2	544.83	773.24	78.506	602.92	797.89	96.421	626.65	730.76	112.42	575.28	705.29	91.74	411.67	758.25	401.91	479.23	751.52	400.82	464.32	678.3	386.38	397.65	686.09	386.28	646.01	481.89	93.179	691.51	497.36	110.78	690.07	438.06	112.47	634.24	419.53	113.74	294.08	405.21	373.59	360.25	389.48	366.16	336.97	317.85	352.32	269.76	337.17	358.01	618.54	66.326	98.917	617.97	89.473	135.4	635.46	60.469	163.43	166.25	94.49	309.77	168.8	121.54	275.05	175.82	91.68	242.96	836.64	105.74	131.87	784.01	92.135	34.727	884.2	124.67	86.229	376.81	53.035	246.97	346.39	51.653	352.83	430.01	47.456	296.61	482.36	1585	236.62
229	0.95373	560.93	1521	412.41	565.03	1526.6	58.206	579.52	1806.8	231.37	602.26	1467.2	236.34	500.64	1102.1	77.439	526.34	1116.9	399.96	559.17	1021.6	98.472	588.27	1020.1	368.72	487.88	938.28	47.139	503.36	953.69	431.09	387.95	1089.9	199.94	396.38	1097.3	291.39	375.17	1062.5	247.79	655.56	567.38	94.092	652.16	547.9	230.25	402.98	549.56	368.83	384.16	569.5	238.26	700.6	149.78	82.714	716.27	145.12	151.38	253.17	143.54	329.93	262.43	162.31	239.85	550.39	772.1	77.789	608.56	796.37	95.907	631.86	729.02	111.81	579.92	703.86	91.144	415.34	758.43	401.34	482.86	751.19	400.48	467.49	678.07	386.13	400.87	686.36	385.8	653.96	480.27	92.372	698.81	496.91	110.61	698.87	437.55	112.24	643.52	417.59	112.7	295.75	405.73	373.36	361.85	389.71	366	338.31	318.19	352.12	271.12	337.76	357.67	637.19	63.958	97.268	635.38	86.979	133.71	653.33	58.444	161.98	166.72	95.57	309.51	169.39	122.56	274.68	176.29	92.557	242.72	853.8	108.98	133.34	802.89	94.189	35.471	901.48	129.22	88.46	376.9	52.943	246.93	346.51	51.799	352.68	430.1	47.318	296.58	488.17	1584.2	236.39
230	0.95791	566.88	1520.2	412.16	570.6	1525.8	57.932	585.57	1805.9	230.86	608.06	1466.3	236.06	507.22	1101.4	76.977	532	1116	399.54	565.92	1021	98.173	594.01	1019.2	368.49	494.83	937.38	46.407	508.5	952.85	430.64	394.38	1088.8	198.97	402.41	1096.2	290.52	381.49	1061.4	246.81	661.3	565.82	93.381	656.36	546.05	229.45	405.32	549.65	368.68	387.03	569.51	238.01	716.95	149.36	82.148	731.83	144.97	151.1	253.83	144.2	329.55	263.32	162.83	239.5	556.02	770.88	77.009	614.23	794.74	95.33	637.27	727.2	111.09	584.57	702.34	90.482	419.06	758.55	400.77	486.53	750.8	400.16	470.72	677.8	385.89	404.15	686.58	385.32	661.89	478.64	91.552	706.06	496.39	110.44	707.57	437.02	112.02	652.73	415.66	111.66	297.46	406.24	373.12	363.5	389.92	365.84	339.67	318.51	351.93	272.5	338.34	357.33	655.52	61.846	95.712	652.44	84.725	132.1	670.83	56.644	160.62	167.2	96.653	309.25	169.99	123.58	274.31	176.78	93.445	242.48	870.48	112.26	134.96	821.36	96.357	36.368	918.27	133.77	90.861	376.99	52.852	246.9	346.62	51.936	352.53	430.17	47.185	296.57	494	1583.2	236.15
